<svg id="Layer_1" data-name="Layer 1" xmlns="http://www.w3.org/2000/svg" xmlns:xlink="http://www.w3.org/1999/xlink" viewBox="0 0 512 512"><defs><style>.cls-1{fill:url(#linear-gradient);}.cls-2{fill:url(#linear-gradient-2);}.cls-3{fill:url(#linear-gradient-3);}.cls-4{fill:url(#linear-gradient-4);}.cls-5{fill:url(#linear-gradient-5);}.cls-6{fill:url(#linear-gradient-6);}.cls-7{fill:url(#linear-gradient-7);}.cls-8{fill:url(#linear-gradient-8);}.cls-9{fill:url(#linear-gradient-9);}.cls-10{fill:url(#linear-gradient-10);}.cls-11{fill:#1b75bb;}.cls-12{fill:url(#linear-gradient-11);}.cls-13{fill:url(#linear-gradient-12);}</style><linearGradient id="linear-gradient" x1="16" y1="100.21" x2="421.99" y2="100.21" gradientUnits="userSpaceOnUse"><stop offset="0" stop-color="#008fc2"/><stop offset="0.99" stop-color="#3188c8"/></linearGradient><linearGradient id="linear-gradient-2" x1="16" y1="130.2" x2="421.99" y2="130.2" gradientUnits="userSpaceOnUse"><stop offset="0" stop-color="#1476a5"/><stop offset="0.48" stop-color="#66be6d"/><stop offset="0.98" stop-color="#029cb0"/></linearGradient><linearGradient id="linear-gradient-3" x1="16" y1="317.05" x2="421.99" y2="317.05" xlink:href="#linear-gradient-2"/><linearGradient id="linear-gradient-4" x1="68.28" y1="117.98" x2="496.06" y2="117.98" gradientUnits="userSpaceOnUse"><stop offset="0" stop-color="#1865a1"/><stop offset="0.02" stop-color="#66be6d"/><stop offset="0.99" stop-color="#029cb0"/></linearGradient><linearGradient id="linear-gradient-5" x1="-7.68" y1="117.98" x2="420.11" y2="117.98" xlink:href="#linear-gradient-4"/><linearGradient id="linear-gradient-6" x1="68.28" y1="93.88" x2="496.06" y2="93.88" xlink:href="#linear-gradient-4"/><linearGradient id="linear-gradient-7" x1="-7.68" y1="93.88" x2="420.11" y2="93.88" xlink:href="#linear-gradient-4"/><linearGradient id="linear-gradient-8" x1="16" y1="288.68" x2="421.99" y2="288.68" xlink:href="#linear-gradient"/><linearGradient id="linear-gradient-9" x1="7.51" y1="321.84" x2="345.69" y2="321.84" gradientUnits="userSpaceOnUse"><stop offset="0" stop-color="#0da0a9"/><stop offset="0.48" stop-color="#66be6d"/><stop offset="0.98" stop-color="#029cb0"/></linearGradient><linearGradient id="linear-gradient-10" x1="-7.77" y1="288.31" x2="421.14" y2="288.31" gradientUnits="userSpaceOnUse"><stop offset="0" stop-color="#006286"/><stop offset="0.52" stop-color="#009245"/><stop offset="0.99" stop-color="#096e9d"/></linearGradient><linearGradient id="linear-gradient-11" x1="109.92" y1="331.57" x2="423.25" y2="331.57" gradientTransform="matrix(1.27, 0.23, 0.23, 1.27, -137.08, -131.08)" gradientUnits="userSpaceOnUse"><stop offset="0" stop-color="#1865a1"/><stop offset="0.99" stop-color="#1a9b9f"/></linearGradient><linearGradient id="linear-gradient-12" x1="67.85" y1="230.05" x2="566.97" y2="230.05" gradientUnits="userSpaceOnUse"><stop offset="0" stop-color="#66be6d"/><stop offset="0.99" stop-color="#029cb0"/></linearGradient></defs><title>Cactiva</title><path class="cls-1" d="M411.93,99.77a4.9,4.9,0,0,0-1.83-1.51l-.85-.34a12.06,12.06,0,0,1,1.66,1.36c.47.48.94.94,1.42,1.42a13,13,0,0,1,1.47,1.8l-.36-.89A4.82,4.82,0,0,0,411.93,99.77Z"/><path class="cls-2" d="M372.41,91.51c-37.54-3-97.58-2.35-166.78,2.51-51.24,3.61-99,8.75-137.78,14.78.21-.09.22,0,.43-.06l-.43.06c-2.62,1.17-5.15,2.33-7.64,3.49q-5.49,2.55-10.55,5.06-6,3-11.36,5.86c-3.63,2-7,3.9-10.2,5.79A24.83,24.83,0,0,0,16,151a24.5,24.5,0,0,0,.6,4.9A23.93,23.93,0,0,0,18,160.07a24.8,24.8,0,0,0,1.9,3.6,24.07,24.07,0,0,0,2.39,3.11c.32.36.61.73.95,1.08l1.74,1.73L26,170.7c37.36-14.47,82.76-29.25,132.29-42.53C247,104.4,326.58,91.37,372.41,91.51Z"/><path class="cls-3" d="M420.08,138.1c.36,45.67-12.68,125.93-36.62,215.36-13.27,49.57-28,95-42.5,132.38l0,0,2.75,2.75.16.16a24.85,24.85,0,0,0,2.8,2.38,24.49,24.49,0,0,0,3.39,2.11,23.72,23.72,0,0,0,3.88,1.61,24.64,24.64,0,0,0,4.54,1,25.1,25.1,0,0,0,5.48,0,24.82,24.82,0,0,0,18.75-12c2.72-4.55,5.54-9.65,8.41-15.21q2.7-5.21,5.46-11c1.22-2.53,2.44-5.15,3.67-7.83v0l.18-.4c.32-.71.64-1.39,1-2.11.49-1.09,1-2.17,1.48-3.29a3.06,3.06,0,0,0,.05-.32l5.36-12.21,9.16-123.45.2-1.9c.17-2.39.31-4.71.47-7.07l.19-2.65,0,.09c.21-3.18.44-6.41.63-9.54C422.67,225.19,422.89,172.12,420.08,138.1Z"/><path class="cls-4" d="M417.32,112.45c.31,1.45.61,3,.88,4.62s.5,3.11.73,4.77.42,3.19.62,4.88c.11.92.21,1.9.31,2.86-.52-10.06-1.88-17.87-4.06-23.2.16.52.32,1.05.47,1.62C416.64,109.35,417,110.85,417.32,112.45Z"/><path class="cls-5" d="M417.32,112.45c.31,1.45.61,3,.88,4.62s.5,3.11.73,4.77.42,3.19.62,4.88c.11.92.21,1.9.31,2.86-.52-10.06-1.88-17.87-4.06-23.2.16.52.32,1.05.47,1.62C416.64,109.35,417,110.85,417.32,112.45Z"/><path class="cls-6" d="M387.8,92.49c1.68.21,3.28.44,4.81.68s3.22.53,4.69.81,3.14.63,4.53,1,2.78.72,4,1.1c-5.5-2.42-13.95-3.85-24.9-4.35l2,.2C384.59,92.09,386.22,92.28,387.8,92.49Z"/><path class="cls-7" d="M387.8,92.49c1.68.21,3.28.44,4.81.68s3.22.53,4.69.81,3.14.63,4.53,1,2.78.72,4,1.1c-5.5-2.42-13.95-3.85-24.9-4.35l2,.2C384.59,92.09,386.22,92.28,387.8,92.49Z"/><path class="cls-8" d="M420.08,138.1c-1.34-16.3-3.38-28.25-6.06-34.65a3.29,3.29,0,0,0-.18-.85l0-.1a13,13,0,0,0-1.47-1.8c-.48-.48-.95-.94-1.42-1.42a12.06,12.06,0,0,0-1.66-1.36l-.15-.06a3.2,3.2,0,0,0-.85-.18c-6.55-2.75-18.91-4.83-35.84-6.17C326.58,91.37,247,104.4,158.33,128.17,108.8,141.45,63.4,156.23,26,170.7l1.64,1.64,2.75,2.75,2.75,2.75,1,1,3.9-.48,6.24-.74,6.22-.72,6.19-.7,6.16-.66,6.14-.64,6.12-.63,6.09-.59,6.07-.58,6-.56,6-.53,6-.51,6-.5,6-.47,6-.45,5.93-.44.81-.06,5.1-.35,5.89-.4,5.88-.37,5.85-.36,5.84-.34,5.81-.32,5.8-.3,5.78-.29,5.75-.25,5.74-.24,5.72-.23,4.41-.15q2-1,4.15-1.94c2.28-1,4.72-2.1,7.23-3.16,2.23-.93,4.52-1.87,6.91-2.82,2.16-.85,4.37-1.71,6.66-2.57,2.09-.79,4.25-1.57,6.44-2.36s4.16-1.47,6.3-2.21,4.07-1.38,6.16-2.07,4-1.32,6-2,3.94-1.24,5.94-1.85,3.88-1.18,5.84-1.76l5.77-1.68c1.88-.54,3.77-1.07,5.69-1.6l4.83-1.33.79-.21c1.86-.5,3.71-1,5.55-1.46s3.66-.94,5.48-1.39,3.62-.9,5.41-1.33l5.35-1.26,5.28-1.2,5.22-1.14,5.16-1.07c1.72-.34,3.41-.68,5.09-1s3.38-.64,5-.94,3.33-.6,5-.87,3.28-.55,4.89-.81,3.24-.5,4.82-.73,3.18-.45,4.73-.65,3.15-.41,4.67-.58,3.08-.34,4.57-.48,3-.28,4.48-.39,3-.21,4.36-.29,2.89-.12,4.25-.15,2.8,0,4.1,0,2.7.08,3.93.16,2.57.22,3.7.38l1.11.17c.83.15,1.6.32,2.3.51a13.45,13.45,0,0,1,2.94,1.15,6.17,6.17,0,0,1,1.34,1c.21.2.41.41.61.61h0c.09.09.16.22.25.31a8.64,8.64,0,0,1,1.44,2.65,20.61,20.61,0,0,1,.85,3.23l.09.4c.17,1,.31,2,.42,3.19s.2,2.47.25,3.84.06,2.62.05,4,0,2.73-.1,4.19-.13,2.83-.23,4.32-.21,2.91-.35,4.44-.28,3-.44,4.53-.34,3-.54,4.63-.4,3.11-.62,4.71-.45,3.16-.7,4.79-.5,3.21-.77,4.86-.55,3.27-.84,4.94-.6,3.31-.91,5-.64,3.35-1,5.06-.68,3.41-1,5.14-.73,3.44-1.11,5.19-.77,3.49-1.17,5.26-.81,3.54-1.23,5.33-.86,3.58-1.3,5.39-.9,3.62-1.36,5.45-.95,3.67-1.43,5.52c-.28,1.06-.56,2.12-.85,3.19l-.66,2.41q-.78,2.85-1.56,5.66c-.55,1.92-1.1,3.84-1.65,5.73s-1.15,3.9-1.73,5.83-1.21,4-1.82,5.91-1.27,4-1.92,6-1.34,4.11-2,6.12-1.43,4.19-2.15,6.24-1.52,4.3-2.29,6.38c-.82,2.24-1.65,4.43-2.47,6.56-.9,2.33-1.79,4.6-2.68,6.78-1,2.47-2,4.83-3,7.1-1.16,2.65-2.32,5.18-3.45,7.54h0c0,.55,0,1.09-.05,1.63-.07,1.89-.14,3.8-.22,5.71s-.14,3.8-.22,5.73-.17,3.83-.26,5.76-.18,3.84-.27,5.77-.19,3.84-.29,5.79-.21,3.87-.32,5.82-.21,3.87-.33,5.83-.22,3.88-.34,5.85-.25,3.91-.38,5.87-.25,3.91-.38,5.89-.27,3.93-.41,5.9l-.12,1.73c-.1,1.41-.2,2.8-.31,4.2q-.21,3-.44,5.94t-.47,6c-.15,2-.32,4-.48,6s-.33,4-.5,6-.35,4-.53,6-.36,4-.54,6-.37,4.06-.57,6.07-.39,4.06-.59,6.09-.4,4.08-.61,6.11-.41,4.1-.63,6.13-.44,4.11-.66,6.16-.45,4.14-.68,6.18-.46,4.16-.7,6.21-.49,4.17-.74,6.24-.51,4.18-.76,6.26c0,.11,0,.21,0,.32l2.66,2.66,2.74,2.75,2.73,2.72c14.46-37.38,29.23-82.81,42.5-132.38C407.4,264,420.44,183.77,420.08,138.1Z"/><path class="cls-9" d="M333.63,471.13q.38-3.11.74-6.24c.24-2.05.47-4.13.7-6.21s.46-4.1.68-6.18.45-4.09.66-6.16.43-4.08.63-6.13.41-4.07.61-6.11.4-4.05.59-6.09.38-4,.57-6.07.36-4,.54-6,.36-4,.53-6,.33-4,.5-6,.33-4,.48-6,.32-4,.47-6,.3-4,.44-5.94c.11-1.4.21-2.79.31-4.2l.12-1.73q.21-3,.41-5.9c.13-2,.26-3.93.38-5.89s.26-3.93.38-5.87.23-3.91.34-5.85.23-3.9.33-5.83.22-3.9.32-5.82.19-3.87.29-5.79.18-3.86.27-5.77.18-3.86.26-5.76.15-3.82.22-5.73.15-3.82.22-5.71c0-.54,0-1.08.05-1.63-1.49,3.11-2.95,5.92-4.37,8.46-.54,1-1.09,1.94-1.62,2.83a11.39,11.39,0,0,1-5.91,4.71,10.85,10.85,0,0,1-4.56.47,10.44,10.44,0,0,1-3.21-.88,10.75,10.75,0,0,1-2.49-1.6c-.22-.18-.44-.37-.65-.58l-1.43-1.43-2-2-2-2.05-2.05-2-2-2-2-2-2.05-2.05-2-2-2-2.05-2-2L301,306l-1.26-1.25L299,304l-2-2.05-2-2-2.05-2.05-2-2-2-2.05-2.05-2-2-2-2-2-2.05-2.05-2-2-2-2-2.05-2-2-2.05-2-2-2.05-2.05-2-2-2.05-2.05-2-2-2-2.05-2.05-2L256,261l-1.25-1.25L254,259l-.59-.59L252,257l-.09-.09-2-2-2-2.05-2.05-2-2-2.05-2-2-2.05-2.05-2-2-2-2-2.05-2-2-2-2.05-2-2-2-2-2-2-2.05-2-2-2-2.05-1.46-1.45-.59-.59-2-2.05-2-2-2-2.05-2-2L207,212l-2.05-2-2-2-2-2-2.05-2-2-2-2.05-2-2-2-2-2-2.05-2-2-2.05-2-2-.55-.55a11.39,11.39,0,0,1-1.34-1.65,11,11,0,0,1-1.32-2.77,10.81,10.81,0,0,1,2.08-10.09,10.51,10.51,0,0,1,2.7-2.32c2.3-1.38,4.92-2.81,7.81-4.28,1.19-.6,2.43-1.21,3.71-1.83l-4.41.15-5.72.23-5.74.24-5.75.25-5.78.29-5.8.3-5.81.32-5.84.34-5.85.36-5.88.37-5.89.4-5.1.35-.81.06-5.93.44-6,.45-6,.47-6,.5-6,.51-6,.53-6,.56-6.07.58-6.09.59-6.12.63-6.14.64-6.16.66-6.19.7-6.22.72-6.24.74-3.9.48,1.76,1.76,2.75,2.75,2.74,2.75,2.75,2.75,2.75,2.75,2.75,2.75,2.75,2.75,2.75,2.75,2.74,2.75,2.75,2.75,2.75,2.75,2.75,2.76,2.75,2.75,2.75,2.75,2.74,2.75,2.75,2.75,2.75,2.75,2.75,2.75,2.75,2.75,2.74,2.75,2.75,2.75,2.75,2.75,2.75,2.75,2.75,2.75,2.75,2.75,2.74,2.75,2.75,2.75,2.75,2.75,2.75,2.75,2.75,2.75,2.75,2.75,2.74,2.75,2.75,2.75,2.75,2.75,2.75,2.75,2.75,2.75,2.74,2.75.8.79,2,2,2.75,2.75,2.23,2.23.52.52,2.75,2.75,2.75,2.75,2.74,2.75,2.75,2.75,2.75,2.75,2.75,2.75,2.75,2.75,2.75,2.75,2.74,2.75,2.75,2.75,2.75,2.75,2.75,2.75,2.75,2.75.7.71,2,2,2,2,.78.78,2.75,2.75.47.48,2.28,2.28,2.75,2.75,2.75,2.75,2.74,2.75,2.75,2.75,2.75,2.75,2.75,2.75,2.75,2.75,2.74,2.75,2.75,2.75,2.75,2.75,2.75,2.75,2.75,2.75,1.7,1.7,1.05,1.05,2.74,2.75,2.75,2.75,2.75,2.75,2.75,2.75,2.75,2.75,2.75,2.75,2.74,2.75,1.06,1.06,1.69,1.69,2.75,2.75,2.75,2.75,2.75,2.75,2.74,2.75,2.75,2.75,2.75,2.75,2.75,2.75,2.75,2.75,2.75,2.75,2.74,2.75,2.75,2.75,2.75,2.75,2.75,2.75,2.75,2.75,2.75,2.75,2.74,2.75,2.75,2.75,2.75,2.75,2.75,2.75,2.75,2.75,2.74,2.75,2.75,2.75,2.75,2.76,2.75,2.75,2.75,2.75,2.75,2.75,2.74,2.75,2.75,2.75,2.75,2.75,2.75,2.75,2.75,2.75.09.09c0-.11,0-.21,0-.32C333.12,475.31,333.38,473.23,333.63,471.13Z"/><path class="cls-10" d="M415.05,102.71a3.21,3.21,0,0,0-.18-.84s0-.07,0-.11a13,13,0,0,0-1.47-1.8c-.48-.47-.95-.94-1.42-1.42a12.84,12.84,0,0,0-1.66-1.36l-.15-.06a4.25,4.25,0,0,0-.85-.18c-6.55-2.75-18.91-4.82-35.84-6.17-45.83-.14-125.45,12.9-214.08,36.66C109.83,140.71,64.43,155.49,27.07,170l.25.24L26,170.7l1.64,1.64,2.75,2.75,2.75,2.75,1,1,3.9-.48,6.24-.74,6.22-.72,6.19-.7,6.16-.66,6.14-.64,6.12-.63,6.09-.59,6.07-.58,6-.56,6-.53,6-.51,6-.5,6-.47,6-.45,5.93-.44.81-.06,5.1-.35,5.89-.4,5.88-.37,5.85-.36,5.84-.34,5.81-.32,5.8-.3,5.78-.29,5.75-.25,5.74-.24,5.72-.23,4.41-.15q2-1,4.15-1.95c2.28-1,4.72-2.09,7.23-3.15,2.23-.93,4.52-1.87,6.91-2.82,2.16-.85,4.37-1.71,6.66-2.57,2.09-.79,4.25-1.57,6.44-2.36s4.16-1.47,6.3-2.21,4.07-1.38,6.16-2.07,4-1.32,6-2,3.94-1.24,5.94-1.85,3.88-1.18,5.84-1.76l5.77-1.68c1.88-.54,3.77-1.07,5.69-1.6l4.83-1.33.79-.21c1.86-.5,3.71-1,5.55-1.46s3.66-.94,5.48-1.39,3.62-.9,5.41-1.33,3.58-.85,5.35-1.26l5.28-1.2,5.22-1.14,5.16-1.07c1.72-.34,3.41-.68,5.09-1s3.38-.64,5-.94,3.33-.6,5-.87,3.28-.55,4.89-.81,3.24-.5,4.82-.73,3.18-.45,4.73-.65,3.15-.41,4.67-.58,3.08-.34,4.57-.48,3-.28,4.48-.4,3-.2,4.36-.28,2.89-.12,4.25-.15,2.8,0,4.1,0,2.7.08,3.93.16,2.57.22,3.7.38l1.11.17c.83.15,1.6.32,2.3.51a13.25,13.25,0,0,1,2.94,1.15,6.17,6.17,0,0,1,1.34,1c.21.2.41.41.61.61h0c.09.09.16.22.25.31a8.64,8.64,0,0,1,1.44,2.65,20.61,20.61,0,0,1,.85,3.23l.09.4c.17,1,.31,2,.42,3.19s.2,2.47.25,3.84.06,2.62.05,4,0,2.73-.1,4.19-.13,2.83-.23,4.32-.21,2.91-.35,4.44-.28,3-.44,4.53-.34,3-.54,4.63-.4,3.11-.62,4.71-.45,3.16-.7,4.79-.5,3.21-.77,4.86-.55,3.27-.84,4.94-.6,3.31-.91,5-.64,3.35-1,5.06-.68,3.41-1,5.14-.73,3.44-1.11,5.19-.77,3.49-1.17,5.26-.81,3.54-1.23,5.33-.86,3.58-1.3,5.39-.9,3.62-1.36,5.45-.95,3.67-1.43,5.52c-.28,1.06-.56,2.12-.85,3.19l-.66,2.41q-.78,2.85-1.56,5.66c-.55,1.92-1.1,3.84-1.65,5.73s-1.15,3.9-1.73,5.83-1.21,4-1.82,5.91-1.27,4-1.92,6-1.34,4.11-2,6.12-1.43,4.19-2.15,6.24-1.52,4.3-2.29,6.38c-.82,2.24-1.65,4.43-2.47,6.56-.9,2.33-1.79,4.6-2.68,6.78-1,2.47-2,4.83-3,7.1-1.16,2.65-2.32,5.18-3.45,7.54h0c0,.55,0,1.09-.05,1.63-.07,1.89-.14,3.8-.22,5.71s-.14,3.8-.22,5.73-.17,3.83-.26,5.76-.18,3.84-.27,5.77-.19,3.84-.29,5.79-.21,3.87-.32,5.82-.21,3.87-.33,5.83-.22,3.88-.34,5.85-.25,3.91-.38,5.87-.25,3.91-.38,5.89-.27,3.93-.41,5.9l-.12,1.73c-.1,1.4-.2,2.8-.31,4.2q-.21,3-.44,5.94t-.47,6c-.15,2-.32,4-.48,6s-.33,4-.5,6-.35,4-.53,6-.36,4-.54,6-.37,4.06-.57,6.07-.39,4.06-.59,6.09-.4,4.08-.61,6.11-.41,4.1-.63,6.13-.44,4.11-.66,6.16-.45,4.14-.68,6.18-.46,4.16-.7,6.21-.49,4.17-.74,6.24-.51,4.18-.76,6.26c0,.11,0,.21,0,.32l2.66,2.66,2.74,2.75,2.73,2.72.48-1.28.55.55c14.46-37.38,29.23-82.82,42.5-132.38,23.94-89.44,37-169.69,36.62-215.36C419.77,121.06,417.73,109.11,415.05,102.71Z"/><path class="cls-11" d="M413.84,102.6a3.29,3.29,0,0,1,.18.85c2.68,6.4,4.72,18.35,6.06,34.65,0-3-.08-5.85-.22-8.52-.1-1-.2-1.94-.31-2.86-.2-1.69-.4-3.32-.62-4.88s-.47-3.27-.73-4.77-.57-3.17-.88-4.62c-.33-1.6-.68-3.1-1.05-4.45-.15-.57-.31-1.1-.47-1.62a21.26,21.26,0,0,0-2-3.88Z"/><path class="cls-11" d="M408.25,97.68a3.2,3.2,0,0,1,.85.18l.15.06a20,20,0,0,0-3.43-1.87c-1.21-.38-2.53-.75-4-1.1s-2.91-.66-4.53-1-3-.55-4.69-.81-3.13-.47-4.81-.68-3.21-.4-4.91-.59l-2-.2q-4-.18-8.51-.19C389.34,92.85,401.7,94.93,408.25,97.68Z"/><path class="cls-12" d="M417.67,306.22,402.9,444.1C408.94,405.3,414.07,357.49,417.67,306.22Z"/><path class="cls-13" d="M488.22,25.2l-1.42-1.41C469.74,6.57,361.18,18.63,234.22,52.68c-58.29,15.63-111.13,33-151.65,49.82-5.1,2.11-10,4.22-14.72,6.3L205.57,94.45C274.76,89.58,334.8,89,372.34,91.93c3,0,5.83.07,8.51.2,10.95.49,19.4,1.93,24.91,4.35l.31.09c1,.31,1.88.63,2.68,1,.47.19.84.4,1.24.6a12.87,12.87,0,0,1,2.44,1.49,10.05,10.05,0,0,1,.64.93,16.57,16.57,0,0,1,1.45,2.75c.12.29.23.63.35,1,.3.77.58,1.64.86,2.54,2.19,5.33,3.54,13.15,4.06,23.2,0,.39.09.77.13,1.15.09,2.23.14,4.54.16,6.95,3.09,37.48,2.51,98.11-2.41,168.12-3.6,51.27-8.73,99.08-14.77,137.88,2.17-4.87,4.35-10,6.55-15.28C426.21,388.41,443.81,336,459.35,278,493.37,150.92,505.42,42.28,488.22,25.2Z"/></svg>